<svg id="visual" viewBox="0 0 900 600" width="900" height="600" xmlns="https://www.w3.org/2000/svg" xmlns:xlink="https://www.w3.org/1999/xlink" version="1.1"><rect x="0" y="0" width="900" height="600" fill="#1f1f1f"></rect><defs><linearGradient id="grad1_0" x1="33.3%" y1="0%" x2="100%" y2="100%"><stop offset="20%" stop-color="#1f1f1f" stop-opacity="1"></stop><stop offset="80%" stop-color="#1f1f1f" stop-opacity="1"></stop></linearGradient></defs><defs><linearGradient id="grad2_0" x1="0%" y1="0%" x2="66.7%" y2="100%"><stop offset="20%" stop-color="#1f1f1f" stop-opacity="1"></stop><stop offset="80%" stop-color="#1f1f1f" stop-opacity="1"></stop></linearGradient></defs><g transform="translate(900, 0)"><path d="M0 324.5C-57.1 316.2 -114.3 308 -162.2 281C-210.2 254.1 -249 208.5 -274.5 158.5C-300 108.5 -312.3 54.3 -324.5 0L0 0Z" fill="#DA344D"></path></g><g transform="translate(0, 600)"><path d="M0 -324.5C57.9 -316.7 115.9 -308.9 162.2 -281C208.6 -253.1 243.4 -205.2 268.5 -155C293.6 -104.8 309 -52.4 324.5 0L0 0Z" fill="#54DEFD"></path></g></svg>
