<svg id="visual" viewBox="0 0 900 600" width="900" height="600" xmlns="http://www.w3.org/2000/svg" xmlns:xlink="http://www.w3.org/1999/xlink" version="1.1"><rect x="0" y="0" width="900" height="600" fill="#001220"></rect><path d="M0 382L21.5 387.7C43 393.3 86 404.7 128.8 400.5C171.7 396.3 214.3 376.7 257.2 380.2C300 383.7 343 410.3 385.8 410.7C428.7 411 471.3 385 514.2 385.8C557 386.7 600 414.3 642.8 429C685.7 443.7 728.3 445.3 771.2 433C814 420.7 857 394.3 878.5 381.2L900 368L900 601L878.5 601C857 601 814 601 771.2 601C728.3 601 685.7 601 642.8 601C600 601 557 601 514.2 601C471.3 601 428.7 601 385.8 601C343 601 300 601 257.2 601C214.3 601 171.7 601 128.8 601C86 601 43 601 21.5 601L0 601Z" fill="#fa7268"></path><path d="M0 406L21.5 410.3C43 414.7 86 423.3 128.8 431.8C171.7 440.3 214.3 448.7 257.2 445.2C300 441.7 343 426.3 385.8 421.7C428.7 417 471.3 423 514.2 422C557 421 600 413 642.8 409.8C685.7 406.7 728.3 408.3 771.2 416C814 423.7 857 437.3 878.5 444.2L900 451L900 601L878.5 601C857 601 814 601 771.2 601C728.3 601 685.7 601 642.8 601C600 601 557 601 514.2 601C471.3 601 428.7 601 385.8 601C343 601 300 601 257.2 601C214.3 601 171.7 601 128.8 601C86 601 43 601 21.5 601L0 601Z" fill="#ef5f67"></path><path d="M0 479L21.5 472.3C43 465.7 86 452.3 128.8 447.8C171.7 443.3 214.3 447.7 257.2 453.7C300 459.7 343 467.3 385.8 466.7C428.7 466 471.3 457 514.2 457C557 457 600 466 642.8 470.7C685.7 475.3 728.3 475.7 771.2 480.7C814 485.7 857 495.3 878.5 500.2L900 505L900 601L878.5 601C857 601 814 601 771.2 601C728.3 601 685.7 601 642.8 601C600 601 557 601 514.2 601C471.3 601 428.7 601 385.8 601C343 601 300 601 257.2 601C214.3 601 171.7 601 128.8 601C86 601 43 601 21.5 601L0 601Z" fill="#e34c67"></path><path d="M0 497L21.5 501.7C43 506.3 86 515.7 128.8 519.3C171.7 523 214.3 521 257.2 516.3C300 511.7 343 504.3 385.8 508C428.7 511.7 471.3 526.3 514.2 533.2C557 540 600 539 642.8 531.2C685.7 523.3 728.3 508.7 771.2 506.3C814 504 857 514 878.5 519L900 524L900 601L878.5 601C857 601 814 601 771.2 601C728.3 601 685.7 601 642.8 601C600 601 557 601 514.2 601C471.3 601 428.7 601 385.8 601C343 601 300 601 257.2 601C214.3 601 171.7 601 128.8 601C86 601 43 601 21.5 601L0 601Z" fill="#d53867"></path><path d="M0 539L21.5 541C43 543 86 547 128.8 550.2C171.7 553.3 214.3 555.7 257.2 557.5C300 559.3 343 560.7 385.8 560.8C428.7 561 471.3 560 514.2 555.2C557 550.3 600 541.7 642.8 540C685.7 538.3 728.3 543.7 771.2 549.3C814 555 857 561 878.5 564L900 567L900 601L878.5 601C857 601 814 601 771.2 601C728.3 601 685.7 601 642.8 601C600 601 557 601 514.2 601C471.3 601 428.7 601 385.8 601C343 601 300 601 257.2 601C214.3 601 171.7 601 128.8 601C86 601 43 601 21.5 601L0 601Z" fill="#c62368"></path></svg>